<svg width="30" height="30" viewBox="0 0 30 30" fill="none" xmlns="http://www.w3.org/2000/svg">
<path d="M5.66671 0.333332H1.66671C1.31309 0.333332 0.973946 0.473807 0.723897 0.723855C0.473849 0.973904 0.333374 1.31304 0.333374 1.66667V28.3333C0.333374 28.687 0.473849 29.0261 0.723897 29.2761C0.973946 29.5262 1.31309 29.6667 1.66671 29.6667H5.66671V0.333332Z" fill="#C4B5FD"/>
<path d="M8.33337 29.6667H21.6667V0.333332H8.33337V29.6667ZM15 24.3333C14.6464 24.3333 14.3073 24.1929 14.0572 23.9428C13.8072 23.6928 13.6667 23.3536 13.6667 23C13.6667 22.6464 13.8072 22.3072 14.0572 22.0572C14.3073 21.8071 14.6464 21.6667 15 21.6667C15.3537 21.6667 15.6928 21.8071 15.9429 22.0572C16.1929 22.3072 16.3334 22.6464 16.3334 23C16.3334 23.3536 16.1929 23.6928 15.9429 23.9428C15.6928 24.1929 15.3537 24.3333 15 24.3333ZM15 5.66667C15.3537 5.66667 15.6928 5.80714 15.9429 6.05719C16.1929 6.30724 16.3334 6.64638 16.3334 7C16.3334 7.35362 16.1929 7.69276 15.9429 7.94281C15.6928 8.19286 15.3537 8.33333 15 8.33333C14.6464 8.33333 14.3073 8.19286 14.0572 7.94281C13.8072 7.69276 13.6667 7.35362 13.6667 7C13.6667 6.64638 13.8072 6.30724 14.0572 6.05719C14.3073 5.80714 14.6464 5.66667 15 5.66667ZM15 13.6667C15.3537 13.6667 15.6928 13.8071 15.9429 14.0572C16.1929 14.3072 16.3334 14.6464 16.3334 15C16.3334 15.3536 16.1929 15.6928 15.9429 15.9428C15.6928 16.1929 15.3537 16.3333 15 16.3333C14.6464 16.3333 14.3073 16.1929 14.0572 15.9428C13.8072 15.6928 13.6667 15.3536 13.6667 15C13.6667 14.6464 13.8072 14.3072 14.0572 14.0572C14.3073 13.8071 14.6464 13.6667 15 13.6667Z" fill="#7C3AED"/>
<path d="M28.3334 0.333332H24.3334V29.6667H28.3334C28.687 29.6667 29.0261 29.5262 29.2762 29.2761C29.5262 29.0261 29.6667 28.687 29.6667 28.3333V1.66667C29.6667 1.31304 29.5262 0.973904 29.2762 0.723855C29.0261 0.473807 28.687 0.333332 28.3334 0.333332Z" fill="#1DB5BE"/>
</svg>
