<svg width="25" height="26" viewBox="0 0 25 26" fill="none" xmlns="http://www.w3.org/2000/svg">
<path d="M1.43531 0.538054C1.10739 0.930126 0.941819 1.43275 0.972507 1.94295V24.0591C0.941729 24.5693 1.10731 25.0719 1.43531 25.464L1.50931 25.5361L13.8983 13.1472V12.8549L1.50931 0.465454L1.43531 0.538054Z" fill="url(#paint0_linear_3873_1671)"/>
<path d="M18.0277 17.2786L13.8983 13.1472V12.8549L18.0287 8.72449L18.1218 8.77759L23.0146 11.5577C24.4122 12.3517 24.4122 13.6509 23.0146 14.4454L18.1218 17.2255L18.0277 17.2786Z" fill="url(#paint1_linear_3873_1671)"/>
<path d="M18.1218 17.225L13.8983 13.0011L1.4353 25.464C1.72007 25.7152 2.08373 25.8588 2.46326 25.87C2.8428 25.8812 3.2143 25.7593 3.5134 25.5254L18.1218 17.225Z" fill="url(#paint2_linear_3873_1671)"/>
<path d="M18.1218 8.77706L3.5134 0.476657C3.2143 0.242751 2.8428 0.120844 2.46326 0.132058C2.08373 0.143272 1.72007 0.286899 1.4353 0.538057L13.8983 13.0011L18.1218 8.77706Z" fill="url(#paint3_linear_3873_1671)"/>
<path opacity="0.2" d="M18.0287 17.132L3.5134 25.3793C3.22582 25.5982 2.87482 25.7176 2.51339 25.7196C2.15196 25.7215 1.79971 25.6058 1.5098 25.39L1.4353 25.4645L1.5093 25.5366L1.5098 25.5361C1.79966 25.752 2.15193 25.8678 2.51339 25.8659C2.87485 25.8639 3.22587 25.7444 3.5134 25.5254L18.1218 17.225L18.0287 17.132Z" fill="black"/>
<path opacity="0.12" d="M1.43528 25.3184C1.1074 24.9263 0.941831 24.4237 0.972484 23.9135V24.0596C0.941813 24.5698 1.10738 25.0724 1.43528 25.4645L1.50978 25.39L1.43528 25.3184Z" fill="black"/>
<path opacity="0.12" d="M23.0146 14.2988L18.0287 17.132L18.1218 17.225L23.0146 14.4449C23.3024 14.32 23.5515 14.1202 23.7358 13.8663C23.9202 13.6125 24.0331 13.3138 24.0629 13.0015C24.001 13.2843 23.8741 13.5488 23.6921 13.774C23.5101 13.9992 23.2781 14.1789 23.0146 14.2988Z" fill="black"/>
<path opacity="0.25" d="M3.51343 0.623221L23.0146 11.7032C23.2783 11.8231 23.5103 12.0028 23.6923 12.2281C23.8743 12.4534 24.0012 12.7181 24.0629 13.001C24.0334 12.6886 23.9205 12.3898 23.7362 12.1358C23.5518 11.8818 23.3026 11.682 23.0146 11.5571L3.51343 0.477121C2.11583 -0.316979 0.972534 0.342621 0.972534 1.94342V2.08952C0.972534 0.488821 2.11583 -0.170779 3.51343 0.623221Z" fill="white"/>
<defs>
<linearGradient id="paint0_linear_3873_1671" x1="12.7996" y1="1.70976" x2="-3.98276" y2="18.4922" gradientUnits="userSpaceOnUse">
<stop stop-color="#00A0FF"/>
<stop offset="0.00657" stop-color="#00A1FF"/>
<stop offset="0.2601" stop-color="#00BEFF"/>
<stop offset="0.5122" stop-color="#00D2FF"/>
<stop offset="0.7604" stop-color="#00DFFF"/>
<stop offset="1" stop-color="#00E3FF"/>
</linearGradient>
<linearGradient id="paint1_linear_3873_1671" x1="24.8343" y1="13.0015" x2="0.637397" y2="13.0015" gradientUnits="userSpaceOnUse">
<stop stop-color="#FFE000"/>
<stop offset="0.4087" stop-color="#FFBD00"/>
<stop offset="0.7754" stop-color="#FFA500"/>
<stop offset="1" stop-color="#FF9C00"/>
</linearGradient>
<linearGradient id="paint2_linear_3873_1671" x1="15.8269" y1="15.2962" x2="-6.93143" y2="38.0545" gradientUnits="userSpaceOnUse">
<stop stop-color="#FF3A44"/>
<stop offset="1" stop-color="#C31162"/>
</linearGradient>
<linearGradient id="paint3_linear_3873_1671" x1="-1.70277" y1="-6.82376" x2="8.45975" y2="3.33876" gradientUnits="userSpaceOnUse">
<stop stop-color="#32A071"/>
<stop offset="0.0685" stop-color="#2DA771"/>
<stop offset="0.4762" stop-color="#15CF74"/>
<stop offset="0.8009" stop-color="#06E775"/>
<stop offset="1" stop-color="#00F076"/>
</linearGradient>
</defs>
</svg>
