<svg width="86" height="24" viewBox="0 0 86 24" fill="none" xmlns="http://www.w3.org/2000/svg">
<path d="M9.31334 3.97272V10.7425H2.99819V3.97272H0V20.1328H2.99819V13.5828H9.31334V20.1328H12.3115V3.97272H9.31334Z" fill="#33475B"/>
<path d="M21.9069 14.909C21.9069 15.5567 21.6455 16.1778 21.1804 16.6357C20.7152 17.0937 20.0843 17.351 19.4265 17.351C18.7687 17.351 18.1378 17.0937 17.6726 16.6357C17.2074 16.1778 16.9461 15.5567 16.9461 14.909V7.98743H14.1022V14.909C14.1022 16.2979 14.6626 17.6299 15.6601 18.612C16.6577 19.5941 18.0106 20.1458 19.4214 20.1458C20.8321 20.1458 22.185 19.5941 23.1826 18.612C24.1801 17.6299 24.7405 16.2979 24.7405 14.909V7.98743H21.9069V14.909Z" fill="#33475B"/>
<path d="M42.9781 8.70041C42.9781 7.28167 43.9315 6.83189 44.9759 6.83189C45.8176 6.83189 46.9297 7.46244 47.6568 8.22749L49.5195 6.06684C48.5896 4.82888 46.7034 3.97272 45.1595 3.97272C42.0747 3.97272 39.8433 5.75157 39.8433 8.70041C39.8433 14.1715 46.6359 12.436 46.6359 15.4976C46.6359 16.442 45.7045 17.2765 44.6381 17.2765C42.9561 17.2765 42.4111 16.4666 41.6384 15.6104L39.5715 17.7263C40.8936 19.3243 42.5242 20.1357 44.4779 20.1357C47.4086 20.1357 49.7663 18.3351 49.7663 15.5208C49.7663 9.44666 42.9737 11.334 42.9737 8.70041" fill="#33475B"/>
<path d="M84.9995 17.5512C83.319 17.5512 82.8416 16.8354 82.8416 15.7391V10.8871H85.4535V8.4285H82.8416V5.18463L79.958 6.45875V16.3422C79.958 18.8702 81.7296 20.1443 84.1593 20.1443C84.5404 20.1512 84.9212 20.1211 85.2963 20.0547L85.9999 17.505C85.6826 17.5267 85.3183 17.5484 84.9995 17.5484" fill="#33475B"/>
<path d="M32.7318 8.06844C31.323 8.06844 30.3403 8.47048 29.3899 9.38883V4.06964H26.5415V13.9285C26.5415 17.6193 29.2518 20.1473 32.297 20.1473C35.6756 20.1473 38.6474 17.5744 38.6474 14.1093C38.6474 10.6875 35.9121 8.06988 32.7318 8.06988V8.06844ZM32.7142 17.3257C32.075 17.3257 31.4502 17.1391 30.9187 16.7895C30.3872 16.4399 29.973 15.943 29.7284 15.3616C29.4838 14.7802 29.4198 14.1405 29.5445 13.5233C29.6692 12.9061 29.977 12.3392 30.429 11.8942C30.8809 11.4492 31.4568 11.1462 32.0837 11.0235C32.7106 10.9007 33.3604 10.9637 33.9509 11.2045C34.5414 11.4453 35.0462 11.8531 35.4013 12.3764C35.7564 12.8996 35.9459 13.5147 35.9459 14.144C35.9459 14.9878 35.6054 15.7971 34.9994 16.3938C34.3933 16.9905 33.5713 17.3257 32.7142 17.3257Z" fill="#33475B"/>
<path d="M63.6597 13.9618C63.6597 10.4909 60.6938 7.92383 57.3093 7.92383C54.2641 7.92383 51.5538 10.4518 51.5538 14.1426V24.0072H54.4022V18.6808C55.3511 19.5977 56.3354 20.0012 57.7426 20.0012C60.923 20.0012 63.6582 17.385 63.6582 13.9618H63.6597ZM60.9626 13.9271C60.9626 14.5564 60.7731 15.1715 60.418 15.6947C60.0629 16.2179 59.5582 16.6258 58.9676 16.8666C58.3771 17.1074 57.7273 17.1704 57.1004 17.0476C56.4735 16.9249 55.8977 16.6218 55.4457 16.1769C54.9937 15.7319 54.6859 15.165 54.5612 14.5478C54.4365 13.9306 54.5005 13.2909 54.7451 12.7095C54.9897 12.1281 55.404 11.6312 55.9354 11.2816C56.4669 10.932 57.0917 10.7454 57.7309 10.7454C58.588 10.7454 59.41 11.0806 60.0161 11.6773C60.6222 12.274 60.9626 13.0832 60.9626 13.9271Z" fill="#33475B"/>
<path d="M72.8615 7.78787V4.97063C73.2397 4.79667 73.5599 4.52054 73.7848 4.17438C74.0098 3.82823 74.1302 3.42628 74.1322 3.01535V2.95027C74.1322 2.37493 73.9 1.82315 73.4868 1.41632C73.0736 1.00949 72.5131 0.780939 71.9287 0.780939H71.8626C71.2782 0.780939 70.7177 1.00949 70.3045 1.41632C69.8913 1.82315 69.6591 2.37493 69.6591 2.95027V3.01535C69.6611 3.42628 69.7815 3.82823 70.0065 4.17438C70.2314 4.52054 70.5516 4.79667 70.9298 4.97063V7.78787C69.8429 7.95157 68.8192 8.3951 67.9625 9.07356L60.1152 3.05584C60.1707 2.8574 60.2003 2.6528 60.2033 2.44698C60.2042 1.96352 60.0594 1.49067 59.7873 1.08823C59.5151 0.685791 59.1279 0.371847 58.6745 0.186108C58.2211 0.000369021 57.722 -0.0488204 57.2402 0.0447614C56.7584 0.138343 56.3156 0.370492 55.9679 0.711844C55.6201 1.0532 55.383 1.48842 55.2865 1.96245C55.1901 2.43649 55.2386 2.92805 55.4259 3.37496C55.6132 3.82186 55.9309 4.20404 56.3389 4.47314C56.7469 4.74224 57.2267 4.88618 57.7178 4.88675C58.1472 4.88486 58.5686 4.77217 58.94 4.55991L66.6683 10.4793C65.9739 11.5118 65.6116 12.7264 65.6286 13.9647C65.6456 15.203 66.0412 16.4075 66.7638 17.4211L64.4134 19.7351C64.2233 19.6753 64.0253 19.6436 63.8258 19.6411C63.4227 19.6414 63.0287 19.7593 62.6936 19.98C62.3585 20.2007 62.0974 20.5142 61.9433 20.8809C61.7891 21.2477 61.7489 21.6511 61.8276 22.0404C61.9063 22.4296 62.1005 22.7872 62.3855 23.0678C62.6706 23.3485 63.0338 23.5396 63.4291 23.6171C63.8245 23.6946 64.2344 23.655 64.6069 23.5033C64.9794 23.3515 65.2978 23.0944 65.522 22.7646C65.7461 22.4347 65.8659 22.0468 65.8662 21.6499C65.8637 21.4534 65.8315 21.2585 65.7707 21.0714L68.0961 18.782C68.8544 19.3565 69.7361 19.7525 70.6739 19.9397C71.6116 20.1268 72.5803 20.1003 73.506 19.8619C74.4316 19.6236 75.2896 19.1799 76.0142 18.5647C76.7388 17.9495 77.3107 17.1793 77.6862 16.3129C78.0618 15.4465 78.2309 14.507 78.1807 13.5664C78.1305 12.6257 77.8623 11.7088 77.3966 10.886C76.9309 10.0631 76.2801 9.35614 75.494 8.81913C74.7079 8.28212 73.8074 7.92936 72.8615 7.78787ZM71.8979 17.0523C71.2618 17.0518 70.6401 16.8656 70.1115 16.5173C69.5829 16.169 69.171 15.6742 68.9279 15.0955C68.6848 14.5168 68.6215 13.8801 68.7458 13.266C68.8701 12.6518 69.1766 12.0878 69.6265 11.6451C70.0764 11.2023 70.6495 10.9009 71.2734 10.7787C71.8972 10.6566 72.5439 10.7193 73.1316 10.9589C73.7193 11.1984 74.2216 11.6042 74.5752 12.1248C74.9287 12.6454 75.1176 13.2574 75.1179 13.8837C75.1179 14.7237 74.7789 15.5293 74.1756 16.1232C73.5723 16.7172 72.754 17.0509 71.9008 17.0509" fill="#FF7A59"/>
</svg>
