<svg width="30" height="30" viewBox="0 0 30 30" fill="none" xmlns="http://www.w3.org/2000/svg">
<path d="M29.6667 6.99999V1.66666C29.6667 1.31304 29.5262 0.9739 29.2762 0.723851C29.0261 0.473803 28.687 0.333328 28.3334 0.333328H1.66671C1.31309 0.333328 0.973946 0.473803 0.723897 0.723851C0.473849 0.9739 0.333374 1.31304 0.333374 1.66666V6.99999H29.6667Z" fill="#1DB5BE"/>
<path d="M0.333374 9.66666V28.3333C0.333374 28.6869 0.473849 29.0261 0.723897 29.2761C0.973946 29.5262 1.31309 29.6667 1.66671 29.6667H8.33337V9.66666H0.333374Z" fill="#C4B5FD"/>
<path d="M11 29.6667H28.3333C28.687 29.6667 29.0261 29.5262 29.2761 29.2761C29.5262 29.0261 29.6667 28.6869 29.6667 28.3333V9.66666H11V29.6667Z" fill="#7C3AED"/>
</svg>
