<svg width="112" height="26" viewBox="0 0 112 26" fill="none" xmlns="http://www.w3.org/2000/svg">
<g clip-path="url(#clip0_4766_1067)">
<path d="M39.8578 9.24784V10.7213H39.9032C40.4382 9.93242 41.3264 9.00334 43.2949 9.00334C44.8265 9.00334 46.0013 9.77594 46.5048 10.943H46.5503C46.9804 10.3529 47.4734 9.90634 48.0259 9.59013C48.6797 9.21524 49.407 9.00008 50.3231 9.00008C52.3966 9.00008 54.2323 10.3366 54.2323 13.7074V20.1001H51.0714V14.154C51.0714 12.4458 50.449 11.4581 49.1553 11.4581C48.2077 11.4581 47.5188 12.0514 47.2566 12.7816C47.1657 13.0326 47.1237 13.3749 47.1237 13.6617V20.1033H43.9628V13.9128C43.9628 12.4621 43.3649 11.4548 42.0886 11.4548C41.0676 11.4548 40.4277 12.2046 40.1655 12.8468C40.0536 13.1206 40.0186 13.4368 40.0186 13.7335V20.1001H36.8542V9.24784H39.8578ZM70.5475 9.24784V11.2951H70.6349C71.2153 9.7303 72.593 9.00334 73.8028 9.00334C74.107 9.00334 74.2748 9.02616 74.5196 9.0718V11.9144C74.2294 11.8753 73.9602 11.8362 73.5825 11.8362C72.2119 11.8362 71.2573 12.5795 71.016 13.7432C70.9636 13.9845 70.9461 14.2453 70.9461 14.5452V20.1033H67.7012V9.24784H70.5475ZM78.9253 5.65216V9.06854H81.6667V11.8329H78.9253V15.9111C78.9253 17.2313 79.2855 17.8703 80.3554 17.8703C80.859 17.8703 81.2296 17.8116 81.5513 17.7366L81.5932 20.0283C81.1632 20.1783 80.247 20.3413 79.317 20.3413C78.2225 20.3413 77.3099 19.986 76.7539 19.435C76.1176 18.8059 75.8239 17.7757 75.8239 16.3088V5.65216H78.9253ZM34.6513 20.1001H31.5044V5.65216H34.6513V20.1001ZM26.2595 16.224C26.2595 16.4229 26.242 16.6315 26.1826 16.8108C25.9378 17.5639 25.1021 18.1995 24.0601 18.1995C23.1895 18.1995 22.4971 17.7399 22.4971 16.7652C22.4971 15.2754 24.2594 14.8614 26.263 14.8712V16.224H26.2595ZM29.4029 13.6259C29.4029 11.1647 28.277 9.00334 24.4692 9.00334C22.5146 9.00334 20.9621 9.51515 20.116 9.97153L20.7349 11.947C21.5076 11.4907 22.7419 11.1158 23.9098 11.1158C25.8434 11.1125 26.1581 12.1361 26.1581 12.7914V12.9478C21.9447 12.9413 19.2838 14.3007 19.2838 17.0716C19.2838 18.7635 20.637 20.3478 22.9937 20.3478C24.4448 20.3478 25.6546 19.8099 26.3819 18.9461H26.4518C26.4518 18.9461 26.9343 20.8205 29.5848 20.1033C29.4449 19.3209 29.3994 18.4897 29.3994 17.4889V13.6259H29.4029ZM3.47562 5.65216C3.80081 7.18106 4.72391 11.621 4.72391 11.621C5.11203 13.4466 5.46869 15.3602 5.73793 16.8728H5.78688C6.04912 15.2656 6.46172 13.7432 6.9023 11.859L8.45828 5.65216H11.9024L13.357 12.0188C13.7382 13.7889 14.0424 15.1548 14.2836 16.801H14.3291C14.5913 15.1385 14.934 13.7172 15.3081 11.8981L16.7068 5.65216H20.0111L15.9165 20.1001C13.3081 20.6314 12.308 19.6535 11.9514 18.1017C11.5947 16.5468 10.8954 13.59 10.8954 13.59C10.5353 11.9699 10.2555 10.8289 10.0597 9.16634H10.0108C9.73105 10.8126 9.43733 11.9666 9.00375 13.5868L7.28692 20.1033C4.62251 20.5988 3.69941 19.8653 3.1889 17.8735C2.74833 16.1686 0 5.65542 0 5.65542H3.47562V5.65216ZM62.4563 16.224C62.4563 16.4229 62.4389 16.6315 62.3794 16.8108C62.1346 17.5639 61.299 18.1995 60.257 18.1995C59.3863 18.1995 58.694 17.7399 58.694 16.7652C58.694 15.2754 60.4563 14.8614 62.4598 14.8712V16.224H62.4563ZM65.5998 13.6259C65.5998 11.1647 64.4739 9.00334 60.6661 9.00334C58.7115 9.00334 57.159 9.51515 56.3128 9.97153L56.9317 11.947C57.7044 11.4907 58.9387 11.1158 60.1066 11.1158C62.0367 11.1125 62.3549 12.1361 62.3549 12.7914V12.9478C58.145 12.9413 55.4841 14.3007 55.4841 17.0716C55.4841 18.7635 56.8408 20.3478 59.194 20.3478C60.6416 20.3478 61.8549 19.8099 62.5787 18.9461H62.6521C62.6521 18.9461 63.1347 20.8205 65.7851 20.1033C65.6452 19.3209 65.5998 18.4897 65.5998 17.4889V13.6259Z" fill="#041E42"/>
<path d="M94.4234 15.1241C94.7335 15.6517 94.7126 16.2406 94.3815 16.5096L88.6585 20.4276C88.0625 20.7646 87.1703 20.3561 86.6649 19.5017C86.156 18.6439 86.2467 17.6874 86.8427 17.3504L93.1791 14.4705C93.5764 14.3208 94.1132 14.5965 94.4234 15.1241ZM101.955 15.1241C102.269 14.5965 102.802 14.3242 103.2 14.4671L109.539 17.3469C110.135 17.6839 110.223 18.6405 109.717 19.4983C109.208 20.3527 108.313 20.7578 107.72 20.4242L101.997 16.5062C101.669 16.2406 101.645 15.6483 101.955 15.1241ZM98.1875 17.2482C98.8114 17.2482 99.3238 17.5614 99.3935 17.9733L100.01 24.7745C100.01 25.4485 99.2053 26 98.191 26C97.1803 26 96.3717 25.4485 96.3717 24.7745L96.9851 17.9733C97.0548 17.5614 97.5671 17.2482 98.1875 17.2482ZM101.997 9.49385L107.72 5.5724C108.313 5.2354 109.208 5.64048 109.717 6.4983C110.223 7.35611 110.135 8.31265 109.539 8.64965L103.2 11.5329C102.802 11.6758 102.265 11.4035 101.955 10.8759C101.645 10.3483 101.669 9.75936 101.997 9.49385ZM93.1791 11.5329L86.8427 8.64965C86.2502 8.31265 86.1595 7.35611 86.6649 6.4983C87.1703 5.64048 88.066 5.2354 88.6585 5.5724L94.3815 9.49385C94.7126 9.75596 94.7335 10.3483 94.4234 10.8759C94.1132 11.4035 93.5764 11.6758 93.1791 11.5329ZM96.9851 8.02671L96.3717 1.22545C96.3717 0.551453 97.1768 0 98.191 0C99.2053 0 100.01 0.551453 100.01 1.22545L99.3935 8.02671C99.3238 8.43519 98.8114 8.75177 98.1875 8.75177C97.5671 8.75177 97.0548 8.43519 96.9851 8.02671ZM111.265 20.4004V20.2302H111.421C111.474 20.2302 111.509 20.2642 111.509 20.3153C111.509 20.3629 111.474 20.4004 111.421 20.4004H111.265ZM111.136 20.7101C111.136 20.7272 111.15 20.7442 111.171 20.7442H111.237C111.254 20.7442 111.272 20.7272 111.272 20.7101V20.5161H111.38L111.467 20.7203C111.474 20.734 111.484 20.7442 111.498 20.7442H111.578C111.603 20.7442 111.62 20.7203 111.61 20.6965C111.578 20.6352 111.547 20.5706 111.516 20.5059C111.568 20.4889 111.648 20.4378 111.648 20.3153C111.648 20.1859 111.54 20.111 111.432 20.111H111.171C111.153 20.111 111.136 20.128 111.136 20.1451V20.7101ZM110.853 20.4276C110.853 20.1519 111.083 19.9272 111.366 19.9272C111.648 19.9272 111.878 20.1485 111.878 20.4276C111.878 20.7033 111.652 20.928 111.366 20.928C111.08 20.928 110.853 20.7033 110.853 20.4276ZM110.731 20.4276C110.731 20.768 111.014 21.0471 111.366 21.0471C111.714 21.0471 112 20.768 112 20.4276C112 20.0872 111.714 19.8081 111.366 19.8081C111.014 19.8081 110.731 20.0872 110.731 20.4276Z" fill="#FFC124"/>
</g>
<defs>
<clipPath id="clip0_4766_1067">
<rect width="112" height="26" fill="white"/>
</clipPath>
</defs>
</svg>
